<!-- Created with Inkscape (http://www.inkscape.org/) -->
<svg width="2633" height="396" version="1.1" viewBox="0 0 2633 396" xmlns="http://www.w3.org/2000/svg">
 <path d="m1265.5 383c-0.9955-1.1-2.3877-2-3.0937-2-0.754 0-1.561-1.8491-1.9558-4.4813-0.5216-3.4785-0.2242-5.3403 1.3291-8.3203 1.5565-2.9863 1.7602-4.2677 0.9167-5.7687-0.9794-1.7429-2.0603-32.152-1.6237-45.68 0.04-1.2375 0.018-7.875-0.05-14.75-0.067-6.875 0.047-14.3 0.2537-16.5 0.2069-2.2 0.044-4.9364-0.3611-6.0808-0.4055-1.1445-0.3132-4.9695 0.205-8.5 1.0726-7.3065 1.0696-7.1668 0.3418-15.919-0.2973-3.575-0.4654-8.3-0.3736-10.5 0.092-2.2 0.2674-12.888 0.3902-23.75l0.2233-19.75h-2.9858c-3.2523 0-11.714-1.2895-24.216-3.6904-12.61-2.4215-14.753-2.9604-18.823-4.7329-2.1029-0.91566-4.6974-1.3874-5.7657-1.0484s-3.4782 0.10956-5.3555-0.50999c-1.8772-0.61955-6.7077-1.1526-10.734-1.1847-4.0266-0.032-8.1113-0.47496-9.077-0.98429-1.1197-0.59047-3.1496-0.5085-5.6018 0.22619-3.095 0.92728-5.2311 0.83716-10.942-0.46164-3.9026-0.88763-9.7293-1.6139-12.948-1.6139-3.3195 0-6.3886-0.536-7.091-1.2384-1.3022-1.3022-7.936-2.0096-17.162-1.83-3.025 0.0589-7.75-0.37623-10.5-0.96694-2.75-0.59072-9.725-1.4677-15.5-1.9489-12.197-1.0162-24.899-2.7497-30.244-4.1275-2.3199-0.59802-4.4119-0.61189-5.5-0.0365-1.9805 1.0474-18.49-0.23592-27.256-2.1187-3.025-0.6497-9.1-1.2787-13.5-1.3978-4.4-0.11909-11.6-0.51061-16-0.87005-4.4-0.35943-12.95-0.86376-19-1.1207s-11.428-0.88961-11.95-1.4059-3.2225-0.93753-6-0.9361c-4.9138 3e-3 -17.93-2.468-20.16-3.8265-0.61036-0.37185-2.1854-1.4219-3.5-2.3335-1.3146-0.91157-4.3774-1.9213-6.806-2.2438-2.4287-0.32251-7.8199-1.2895-11.981-2.1489-4.1607-0.85941-11.494-1.6706-16.297-1.8026-4.8029-0.13202-9.0491-0.55667-9.4361-0.94366-1.0604-1.0604-11.165-0.84484-11.843 0.25271-0.32507 0.52598-1.1391 0.76398-1.809 0.52891-1.7996-0.63151-6.6775-1.5303-11.218-2.0669-9.6332-1.1385-18.259-2.7008-21.5-3.8939-5.3107-1.9553-14.027-4.3278-18.5-5.0355-2.2-0.34811-9.1681-1.7529-15.485-3.1218-10.387-2.2509-16.427-2.7641-27.103-2.3026-1.973 0.0853-5.0176-0.58457-6.7657-1.4886-2.4511-1.2675-7.3509-1.7814-21.413-2.2457-10.029-0.33114-18.791-1.041-19.471-1.5774-0.68003-0.53641-6.53-1.4059-13-1.9322-6.47-0.52628-16.939-1.3776-23.264-1.8919-6.325-0.5143-22.075-1.3427-35-1.8409-12.925-0.49819-30.925-1.1971-40-1.5532-9.075-0.35611-19.425-1.0448-23-1.5304-3.575-0.4856-7.4-0.99474-8.5-1.1314-4.2872-0.53275-66.171-0.3394-69 0.21559-1.6752 0.32864-4.163 0.0127-5.6334-0.71538-4.9769-2.4643-26.87-4.1755-47.367-3.7022-3.85 0.0889-8.575 0.13127-10.5 0.0941-1.925-0.0371-4.625 0.0705-6 0.23924-1.375 0.1687-6.9141 0.23674-12.309 0.1512-7.2035-0.11421-9.617-0.46628-9.086-1.3255 0.51831-0.83864 0.18106-0.92201-1.191-0.29442-1.0527 0.48154-7.539 0.80648-14.414 0.72208-25.444-0.31233-40.747-0.0918-50 0.72043-5.225 0.45868-14.225 0.88724-20 0.95235-5.775 0.0651-12.347 0.54503-14.605 1.0665-4.0089 0.92581-18.371 2.0889-31.395 2.5424-19.156 0.6671-46.126 2.5231-50.5 3.4753-5.2538 1.1436-14.042 1.7939-31.5 2.3309-5.775 0.17765-11.767 0.84757-13.315 1.4887-1.5483 0.64113-4.9233 1.1599-7.5 1.1529-4.7951-0.0131-19.285 2.9133-20.185 4.0766-0.275 0.35549-2.3 1.2117-4.5 1.9027s-4.9 1.8127-6 2.4928-5.0429 1.8068-8.762 2.504-7.7691 2.0471-9 2.9997c-1.2309 0.95264-4.938 2.5105-8.238 3.462-6.1816 1.7823-11.405 4.0133-17.5 7.4751-5.7179 3.2476-18.606 9.0999-20.04 9.0999-0.73184 0-2.2596 0.8438-3.3951 1.8751-3.1315 2.8443-17.794 11.125-19.699 11.125-0.92196 0-3.6314 1.5859-6.0209 3.5242-5.0877 4.127-11.871 9.4479-16.951 13.297-1.9835 1.5028-6.3418 5.9026-9.685 9.7774s-7.5631 8.1899-9.3775 9.5891c-2.7434 2.1157-3.0896 2.7962-2.0559 4.0416 0.68362 0.82371 3.6176 1.7768 6.5199 2.1179 7.9962 0.93979 26.178 7.8678 35.615 13.571 4.6253 2.7952 8.7575 5.0822 9.1826 5.0822s1.0889 0.99541 1.4751 2.212c0.38614 1.2166 1.7693 3.0515 3.0737 4.0776 3.459 2.7209 4.7573 5.5256 3.3453 7.227-0.89679 1.0806-0.69031 1.8848 0.93061 3.6246 1.1457 1.2298 2.0831 3.4745 2.0831 4.9884 0 1.5138 0.39089 2.994 0.86865 3.2893 0.47775 0.29527 1.1704 2.4593 1.5393 4.809 0.41358 2.6346 1.518 4.9401 2.8814 6.0148 1.4642 1.1542 1.8397 1.9984 1.1121 2.5-0.60422 0.41655-2.5766 3.8722-4.3832 7.6793-2.7303 5.7539-3.0837 7.2437-2.094 8.8284 1.4344 2.2969 0.16335 4.2599-3.3254 5.1355-1.2755 0.32013-3.3419 2.0518-4.5919 3.8481-4.4853 6.4453-7.1189 7.7712-17.722 8.9223-13.712 1.4886-24.381 1.0966-34.317-1.2608-7.5374-1.7883-9.2724-2.6512-14.888-7.4047-3.4963-2.9593-8.1484-7.9928-10.338-11.186-2.1896-3.1928-4.7747-6.7051-5.7446-7.8051-2.9958-3.3977-5.3513-8.7753-6.1326-14-1.4134-9.4523-2.7751-15.687-3.6784-16.843-0.4977-0.63659-1.1905-2.6625-1.5396-4.5021-0.50759-2.675-0.21019-3.6883 1.4855-5.0614 1.8428-1.4922 1.9505-1.9885 0.82285-3.7941-1.1491-1.8401-0.85249-2.7468 2.5974-7.9386 2.1421-3.2237 4.0226-6.6902 4.1788-7.7033 0.15627-1.0131 0.95564-2.8008 1.7764-3.9725s1.5036-2.8178 1.5175-3.658c0.01392-0.84012 1.8139-5.1225 4-9.5164 2.1861-4.3939 3.9747-8.3988 3.9747-8.8997 0-1.2914 9.8838-10.611 11.253-10.611 0.62468 0 2.5107-1.3427 4.1912-2.9837 12.306-12.018 31.648-28.687 38.036-32.781 2.1893-1.4032 7.7954-4.0488 12.458-5.8792 4.6625-1.8304 10.971-4.8642 14.019-6.7416 3.0482-1.8775 8.2422-4.3147 11.542-5.4161 7.7977-2.6024 11.033-4.0964 16.431-7.5863 2.4368-1.5757 7.1618-3.7802 10.5-4.899 3.3382-1.1188 6.9694-2.5815 8.0694-3.2504s4.925-1.9319 8.5-2.8065c3.575-0.87459 11.9-2.9339 18.5-4.5762 6.6-1.6423 14.475-3.2894 17.5-3.6602s9.55-1.5533 14.5-2.6279c5.7501-1.2483 15.739-2.2449 27.663-2.7601 10.265-0.44348 19.042-1.0402 19.505-1.3262 0.46261-0.28591 9.1641-0.80071 19.337-1.144s22.77-1.0508 27.995-1.5722 15.35-1.4053 22.5-1.9642c35.21-2.7524 40.57-3.1658 48-3.7021 4.4-0.31759 10.025-0.47781 12.5-0.35604s6.075 0.1542 8 0.07206c12.591-0.5372 43.566-0.31971 60.5 0.42479 11 0.48361 24.725 0.96302 30.5 1.0654s29.175 0.49451 52 0.87151c39.597 0.65403 60.836 1.4449 93 3.4628 7.975 0.50036 21.925 1.1957 31 1.5452 20.495 0.78938 43.811 2.384 55 3.7616 4.675 0.5756 12.1 1.2393 16.5 1.4749s11.375 1.1321 15.5 1.9923c4.125 0.86016 11.1 1.7257 15.5 1.9234s15.65 1.535 25 2.9717 18.575 2.8105 20.5 3.0527c8.6714 1.0911 18.018 2.6195 24 3.9247 3.575 0.78002 8.075 1.6177 10 1.8615s5.75 0.93355 8.5 1.5327c18.387 4.0062 38.71 7.096 46.673 7.096 4.9272 0 9.7166 0.40573 10.643 0.90163 0.92658 0.49589 4.6736 1.1224 8.3266 1.3923 5.0706 0.37463 7.1597 1.0086 8.8309 2.6797 2.0999 2.0999 2.2684 2.1172 4.1395 0.42387 1.8677-1.6902 2.1323-1.6768 6.2342 0.31604 2.5143 1.2216 7.561 2.3797 12.218 2.8038 4.3639 0.39744 8.4694 1.1509 9.1233 1.6743s7.1646 1.3754 14.468 1.8933c7.3037 0.51786 14.79 1.3586 16.636 1.8683 1.8459 0.50969 3.9505 0.69866 4.6768 0.41994 0.7263-0.27871 3.0552-0.0462 5.1754 0.51666 6.3789 1.6935 35.037 4.4425 47.898 4.5946 6.624 0.0783 12.579 0.47317 13.233 0.87746 1.0887 0.67283 5.389 1.206 28.723 3.5612 4.4 0.44409 9.35 1.0924 11 1.4408 6.3289 1.3361 26.895 2.8948 48.5 3.6758 25.831 0.93375 45.125 2.4486 47.713 3.7463 0.983 0.49285 5.1622 1.4826 9.2872 2.1995 4.125 0.71686 12 2.3246 17.5 3.5728 9.2912 2.1086 23.532 3.1584 25.59 1.8864 0.4949-0.3059 0.292-1.9892-0.4555-3.7783-0.7415-1.7746-1.6809-8.3605-2.0876-14.635-0.4067-6.2748-1.1729-12.549-1.7026-13.942-0.5298-1.3934-1.1081-3.8959-1.2853-5.5612-1.6974-15.957-3.7943-25.356-7.1905-32.229-2.2372-4.5276-3.9383-9.7396-4.4303-13.574-0.903-7.0365-2.0872-12.179-4.3115-18.724-0.8411-2.475-2.0532-7.65-2.6935-11.5-0.6402-3.85-2.237-9.7353-3.5484-13.078-1.3114-3.3432-2.4002-6.7182-2.4197-7.5-0.02-0.78185-0.6599-2.5465-1.4231-3.9215-1.2056-2.1721-1.1806-2.7295 0.1905-4.25 0.8679-0.9625 2.1832-1.75 2.923-1.75 0.9391 0 1.345-1.4427 1.345-4.7808 0-4.2619 0.2984-4.9091 2.75-5.9637 1.5125-0.65061 3.5112-1.7429 4.4415-2.4272 1.3793-1.0146 2.0252-0.94589 3.5 0.37252 0.9947 0.88923 2.9172 1.7703 4.2723 1.958 2.1633 0.29957 2.7096 1.2864 4.4793 8.0912 1.903 7.3169 2.1705 7.75 4.7863 7.75 3.1812 0 3.6139 1.4564 0.9306 3.1322-1.4771 0.92244-1.7048 1.8611-1.1543 4.7585 0.7344 3.866 4.7169 16.587 6.0027 19.175 0.4278 0.86091 0.3261 2.3724-0.2259 3.359-0.6776 1.2108-0.663 2.4894 0.045 3.9347 1.8782 3.834 4.1915 13.428 3.6059 14.954-0.3143 0.81891-0.042 4.121 0.6051 7.338 2.2877 11.373 3.1202 16.906 3.2997 21.93 0.1179 3.3014 0.791 5.6908 1.9216 6.8214 1.9999 1.9998 2.2533 4.6842 0.5986 6.3389-0.8556 0.85551-0.7528 1.9708 0.41 4.45 2.6612 5.6737 3.5683 10.83 4.5411 25.808 0.5179 7.975 0.9522 15.773 0.9651 17.328 0.036 4.3527 3.7674 7.6688 8.6497 7.6875 2.2416 9e-3 6.7757 0.66756 10.076 1.4644s7.054 1.4648 8.3423 1.4844c1.2882 0.0196 3.4864 0.93562 4.8848 2.0356 3.0272 2.3811 3.6819 2.4481 5.5614 0.56869 1.2417-1.2417 1.9991-1.2357 5.7191 0.046 2.3583 0.8125 7.2588 1.8984 10.89 2.4131s7.8342 1.2204 9.3399 1.5682c3.6893 0.85222 4.2225-0.89757 2.8388-9.3159-0.613-3.7291-1.1633-8.1301-1.223-9.7801-0.1318-3.6464-1.4513-8.744-3.5448-13.695-1.4249-3.3695-1.4205-3.8364 0.05-5.3071 1.4127-1.4127 1.4364-1.8842 0.1914-3.8054-0.8902-1.3738-1.3161-4.1676-1.14-7.4793 0.1547-2.9075-0.099-5.5216-0.5645-5.809-0.4651-0.28746-0.8457-1.4166-0.8457-2.5091s-1.168-3.1545-2.5956-4.582c-1.9908-1.9908-2.6549-3.7573-2.8503-7.581-0.1735-3.3969-0.7803-5.2796-1.9044-5.9086-0.9073-0.50777-1.6497-1.8098-1.6497-2.8934s-1.1687-3.8216-2.5972-6.0844c-2.0497-3.2469-2.3872-4.5603-1.6009-6.2301 2.4603-5.2251 3.3815-8.7492 2.8454-10.885-0.3186-1.2694 0.08-3.5796 0.8867-5.1337 0.8063-1.5541 1.466-4.1664 1.466-5.805 0-2.0739 0.5708-3.1286 1.8781-3.4704 1.9568-0.51172 4.0989-4.1828 4.1537-7.1187 0.049-2.6054 2.1178-4.7311 5.8674-6.0276 5.7832-1.9997 6.756-1.6017 7.9815 3.2653 0.615 2.4424 1.5037 4.6789 1.9748 4.9701 0.4712 0.29118 0.6408 2.776 0.377 5.5218-0.3183 3.3122 0.078 6.3869 1.1782 9.1361 1.1406 2.8504 1.3426 4.5238 0.6475 5.3614-0.6916 0.83329-0.6242 1.6041 0.2135 2.4418 0.7815 0.7815 1.1464 3.7917 1.0093 8.3253-0.1181 3.9057 0.1049 7.5966 0.4955 8.2021s0.7887 2.0009 0.8846 3.1009c0.096 1.1 0.7259 3.8 1.3998 6s1.3421 6.7 1.4849 10c0.1427 3.3 0.7571 9.15 1.3653 13 1.0961 6.9386 2.8967 29.746 3.5402 44.843 0.1839 4.3136 0.7201 8.2024 1.1915 8.6419 1.3544 1.2626 14.34 4.1784 20.013 4.4938 2.8355 0.15762 5.6179 0.57242 6.1831 0.92176 0.5653 0.34934 2.9703 1.031 5.3446 1.5149 2.3742 0.48384 8.8168 1.8473 14.317 3.03s13.825 2.8217 18.5 3.6423c4.675 0.82061 13.049 3.042 18.609 4.9364 5.5599 1.8944 13.038 3.8591 16.618 4.3661 3.5798 0.50695 7.8959 1.6391 9.5915 2.5159 1.6955 0.8768 3.9786 1.5942 5.0734 1.5942 1.0949 0 2.2275 0.38325 2.517 0.85167s2.6786 1.6284 5.309 2.5777c2.6305 0.94929 5.8245 2.2328 7.0977 2.8521 1.7919 0.87165 2.4979 0.83027 3.1242-0.18314 0.6603-1.0682 1.2466-1.0428 3.185 0.1383 2.6531 1.6165 5.1367 2.3514 22.626 6.6947 2.0625 0.51221 7.125 1.464 11.25 2.1151s10.875 2.069 15 3.1509c11.649 3.0552 20.78 4.8623 29.5 5.8379 9.5562 1.0692 25.778 5.2988 26.297 6.8568 0.2164 0.64919 2.8938 1.1081 6.465 1.1081 3.3527 0 7.4777 0.41548 9.1667 0.9233 5.2763 1.5863 13.876 3.368 17.906 3.7096 2.1259 0.18024 5.2827 1.18 7.0151 2.2216 2.1295 1.2804 6.0653 2.1117 12.15 2.5664 10.707 0.80004 23.186 2.1008 33.5 3.4918 4.125 0.55632 15.758 1.7051 25.851 2.5529 10.093 0.84775 18.643 1.7218 19 1.9424 0.5621 0.34738 16.872 2.6406 29.876 4.2006 2.3247 0.27889 4.4887 0.93107 4.809 1.4493s1.8571 0.94222 3.4153 0.94222c1.5581 0 7.494 0.89848 13.191 1.9966 5.697 1.0981 12.833 2.4393 15.858 2.9803s10.675 1.9351 17 3.098c6.325 1.1629 15.964 2.3265 21.419 2.5857 7.2643 0.34517 10.978 1.0114 13.875 2.4893 2.2259 1.1356 4.8849 1.7715 6.0808 1.4543 2.2419-0.59472 8.6074 0.41825 22.625 3.6004 4.675 1.0613 11.425 2.1366 15 2.3897 6.4614 0.45734 9.7181 1.0402 21.831 3.9072 3.4819 0.82415 7.4518 1.4984 8.8219 1.4984 1.3702 0 6.6213 1.3009 11.669 2.8908 8.0614 2.5391 19.588 4.7715 42.678 8.2655 14.013 2.1205 24.152 2.9632 39.688 3.2991 8.9034 0.19248 16.614 0.61312 17.134 0.93477 0.5204 0.32166 11.381 0.83236 24.134 1.1349s29.343 1.211 36.866 2.0187 17.053 1.7251 21.178 2.0385c4.125 0.31343 10.378 1.2481 13.896 2.077 3.7896 0.893 10.513 1.4526 16.5 1.3732 5.5574-0.0736 21.129 0.14139 34.604 0.47783 26.222 0.65467 71.202 0.62747 74.5-0.0451 1.1-0.22432 10.55-0.90003 21-1.5016s20.575-1.4991 22.5-1.9946c3.3484-0.86183 34.808-5.2768 49.5-6.9467 3.85-0.43759 8.35-1.2841 10-1.8811s7.5935-1.5412 13.208-2.0982c10.902-1.0816 19.538-3.1944 30.792-7.5333 3.85-1.4844 8.35-2.9262 10-3.204 4.2488-0.71552 19.326-6.6573 30.5-12.02 14.206-6.8172 25.007-11.797 40-18.44 7.425-3.2898 14.625-6.7307 16-7.6465 1.375-0.9158 6.775-3.8451 12-6.5096s10.175-5.4527 11-6.1961c0.825-0.74334 3.525-2.2346 6-3.3139 5.7866-2.5234 25.043-19.871 28.382-25.569 1.4108-2.4073 3.2317-4.6327 4.0464-4.9454s2.3593-2.2895 3.4325-4.393c1.0731-2.1035 4.0184-6.5747 6.5451-9.936 5.6367-7.4984 5.9882-9.798 1.3441-8.7916-1.7875 0.38733-6.2956 2.2328-10.018 4.101s-8.7871 3.6736-11.255 4.0118l-4.4871 0.61504-8.5437-8.8866c-7.9317-8.2501-8.501-9.1196-7.9491-12.139 0.6355-3.477-1.6798-9.726-4.4552-12.025-1.3695-1.1342-1.3072-1.4441 0.5565-2.7713 1.8782-1.3375 2.0536-2.2532 1.6705-8.723-0.3813-6.4412-0.1197-7.8278 2.4016-12.729 4.3911-8.5354 10.664-12.107 25.368-14.444 16.269-2.586 22.956-1.7845 28.974 3.4724 2.468 2.1559 6.874 4.8936 9.7912 6.0839 3.6848 1.5034 5.1377 2.5975 4.7592 3.5838-0.2997 0.78088 0.351 3.1758 1.446 5.3221 1.1686 2.2908 1.9908 5.8831 1.9908 8.6988 0 6.1599 1.4164 11.033 4.0087 13.793 1.706 1.8159 1.8805 2.652 1.0239 4.905-0.5679 1.4938-1.0326 3.8078-1.0326 5.1424 0 1.3434-0.8927 2.9839-2 3.6754-2.7165 1.6965-2.5146 3.6218 0.5 4.7679 3.2436 1.2332 3.1537 2.1827-0.4061 4.2855-2.0053 1.1846-2.7562 2.2901-2.4224 3.5665 0.5108 1.9532-7.0478 10.116-9.3863 10.137-1.7151 0.0152-3.2786 3.32-2.6707 5.6448 0.4379 1.6745-5.7342 15.023-8.6746 18.76-0.4787 0.60844-2.236 2.7407-3.9051 4.7383-1.6691 1.9976-3.0348 4.1045-3.0348 4.6819s-1.4625 2.0511-3.25 3.2748c-5.3924 3.6916-10.825 9.2312-12.171 12.411-0.6985 1.65-2.577 3.6556-4.1746 4.4569-1.5975 0.80128-3.6676 2.0863-4.6001 2.8556s-4.0825 2.5899-7 4.0457c-2.9175 1.4558-6.4295 3.4668-7.8045 4.4689-9.5354 6.9491-44.492 25.319-53.5 28.114-2.2 0.68268-5.7492 2.437-7.8872 3.8984-2.1379 1.4614-5.7379 3.1194-8 3.6845-4.4301 1.1066-7.8599 2.678-14.042 6.4336-2.1613 1.3129-5.4913 2.68-7.4001 3.0381s-5.2032 2.0435-7.3208 3.7453c-3.4918 2.806-4.167 2.997-7.2509 2.0505-3.5818-1.0993-3.7098-1.0626-15.099 4.332-7.9728 3.7764-25.426 9.0532-32.49 9.8229-3.5696 0.38893-6.9446 1.0438-7.5 1.4552-2.0958 1.5525-9.3599 3.0792-12.13 2.5493-1.5842-0.3031-6.2554 0.15885-10.38 1.0266-4.125 0.86771-12.675 2.2268-19 3.0201s-13.975 1.9276-17 2.5204-11.575 1.4655-19 1.9391c-7.425 0.47362-14.4 1.1393-15.5 1.4794-1.1 0.34004-6.05 0.78816-11 0.99584s-18 0.8066-29 1.3309-24.639 0.61924-30.309 0.21089c-5.6698-0.40834-12.87-0.44863-16-0.0895-3.1302 0.35911-12.666 0.29774-21.191-0.13638s-18.05-0.53703-21.166-0.22869c-3.1163 0.30834-5.9218 0.14694-6.2343-0.35867s-5.8627-1.2246-12.334-1.5977-15.366-1.1388-19.766-1.7014c-33.103-4.2329-38.354-4.759-53.391-5.3484-8.6049-0.33733-13.84-0.15185-14.648 0.51899-1.2225 1.0146-5.0602 0.59212-17.214-1.8948-2.3391-0.47863-7.304-0.65193-11.033-0.38512-9.9136 0.70931-39.699-1.5107-43.918-3.2733-1.9473-0.81363-5.4884-1.4793-7.8692-1.4793-5.3962 0-12.62-1.4609-22.809-4.6127-4.3351-1.341-8.734-2.1678-9.7752-1.8374-1.0413 0.33047-4.9193-0.27664-8.6179-1.3491-9.3179-2.7019-15.626-3.9896-23.225-4.7404-3.575-0.35326-10.362-1.4856-15.082-2.5163-4.72-1.0307-11.846-2.112-15.835-2.4028-3.9895-0.29088-7.7777-0.85569-8.4182-1.2552s-3.4146-1.0553-6.1646-1.4574-9.174-1.644-14.276-2.7596c-5.1015-1.1157-11.402-2.2274-14-2.4706-2.5984-0.24315-6.7494-1.3674-9.2244-2.4984-2.475-1.131-6.525-2.0701-9-2.0869-5.2952-0.0361-28.698-2.7083-29.826-3.4057-0.4274-0.26416-4.8039-1.003-9.7256-1.6418s-12.324-2.2112-16.448-3.4941-9.975-2.6205-13-2.9725-8.875-1.3785-13-2.2811c-4.125-0.90264-10.2-1.6936-13.5-1.7576-3.3-0.0641-7.5448-0.47269-9.433-0.9081-1.8881-0.4354-6.1631-0.97839-9.5-1.2066-11.226-0.76789-15.042-1.1893-20.567-2.2718-3.025-0.59266-10.225-1.4958-16-2.0071-11.395-1.0087-19.602-2.2982-30.5-4.7919-7.9313-1.8149-15.495-2.9821-26.765-4.1304-5.5406-0.56451-8.6216-1.4242-10.754-3.0009-2.3795-1.7592-3.3956-1.9919-4.9846-1.1415-1.3546 0.72495-1.9959 0.73555-1.9959 0.033 0-0.56935-2.0546-1.0352-4.5657-1.0352-2.5112 0-5.4682-0.48296-6.5712-1.0732-2.8966-1.5504-12.477-3.9268-15.831-3.9268-1.5785 0-4.1441-0.63694-5.7012-1.4154-3.938-1.9688-11.861-3.4713-25.331-4.8037-6.3248-0.6256-12.058-1.696-12.741-2.3786-0.6827-0.68264-4.2828-1.5563-8.0004-1.9415-6.459-0.66923-22.539-5.4681-26.759-7.9858-1.1-0.6563-5.2829-1.7827-9.2954-2.5031-4.0125-0.72041-7.5265-1.6838-7.809-2.1409-0.2825-0.45707-2.6246-0.85078-5.2046-0.87492-2.5801-0.0241-6.491-0.72989-8.691-1.5683-2.2-0.83844-5.7027-1.9494-7.7838-2.4687s-4.5561-1.3724-5.5-1.8956c-2.5064-1.3894-16.814-5.0234-19.777-5.0234-1.3962 0-3.7537-0.60836-5.2389-1.3519-1.4851-0.74355-6.3003-1.9121-10.7-2.5968-12.038-1.8733-22.37-3.89-28.468-5.5568-3.0074-0.82197-6.2011-1.4945-7.0972-1.4945s-2.1176-1.0125-2.7144-2.25c-0.8237-1.7079-1.1014-1.8426-1.1528-0.55902-0.037 0.93004 0.2979 1.9169 0.7447 2.193 0.8318 0.5141 0.7695 18.367-0.067 19.204-0.8896 0.88961 1.4348 10.926 2.9114 12.571 1.3357 1.4883 1.2661 1.7303-0.6751 2.3464-1.6816 0.53372-2.0064 1.1674-1.456 2.8406 0.6888 2.094 1.7602 16.881 1.5508 21.404-0.1139 2.4608-0.1719 7.1399-0.144 11.618 0.01 1.5772 0.5342 3.4897 1.1652 4.25 0.8659 1.0433 0.8512 1.7391-0.06 2.8367-1.3376 1.6116-0.467 14.163 1.0472 15.098 0.4671 0.28867 0.5937 1.8028 0.2813 3.3648-0.3204 1.6019-0.088 3.1365 0.5328 3.5202 0.6054 0.37416 1.1007 1.484 1.1007 2.4663s0.9 2.6005 2 3.596 2 3.0647 2 4.5983c0 1.6745 0.8163 3.3601 2.0436 4.2197 2.0029 1.4029 2.0078 1.5086 0.25 5.3067-0.9865 2.1314-2.312 4.2105-2.9455 4.6201-0.6336 0.40965-2.3384 2.7694-3.7885 5.2438-2.0722 3.5358-2.4143 4.9144-1.5981 6.4394 2.0658 3.8599 1.2727 5.9129-2.7115 7.0194-5.1121 1.4197-5.6706 1.3503-7.7657-0.96475-1.234-1.3636-1.8881-3.8069-2.0185-7.5399-0.1363-3.9031-0.6966-5.891-1.9108-6.7788-1.2426-0.90858-1.7736-2.9038-1.919-7.21-0.1158-3.4272-0.9527-7.356-1.9722-9.258-0.9742-1.8173-1.6736-4.0673-1.5543-5 0.1192-0.93272-0.1382-3.4178-0.572-5.5224-0.4592-2.2276-0.375-4.7347 0.2015-6 0.5446-1.1954 0.6613-3.0735 0.2593-4.1735-1.0909-2.985-2.215-12.968-2.4775-22-0.1278-4.4-0.7564-13.317-1.3968-19.816-0.895-9.0817-0.8895-12.734 0.024-15.782 0.7781-2.5971 0.849-4.3048 0.2055-4.9483-0.5982-0.59815-0.6911-3.4224-0.2375-7.2179 0.4098-3.4294 0.3549-6.6343-0.122-7.122-0.4769-0.48768-0.6375-2.9627-0.3569-5.5 0.2806-2.5373 0.1201-6.4105-0.3568-8.6072-0.834-3.8421-1.0494-4.02-5.6681-4.6806-2.6406-0.37772-5.6768-1.4792-6.7471-2.4478-1.7398-1.5746-2.5675-1.6327-7.8146-0.54892-6.1728 1.275-6.6606 1.2108-22.614-2.9753-3.8851-1.0194-8.1667-1.8535-9.5148-1.8535s-4.1775-0.92532-6.2876-2.0563-4.8034-1.9184-5.9852-1.75c-2.104 0.29991-2.1527 0.70069-2.345 19.306-0.3003 29.049-0.2972 33.295 0.032 43 0.1677 4.95-0.1303 9.5758-0.6622 10.28-0.6388 0.84531-0.5263 2.2029 0.3315 4 1.3453 2.8184 2.1846 23.126 2.1164 51.211-0.027 11.054 0.3105 15.018 1.422 16.715 1.865 2.8464 1.8455 4.727-0.065 6.3129-1.3574 1.1265-1.3341 1.5466 0.2149 3.8724 2.5238 3.7894 2.3946 13.49-0.2465 18.524-1.7108 3.2609-2.9644 4.2173-7.5 5.7218-6.8888 2.2851-7.2586 2.2798-9.4459-0.13719zm-1180.5-93.565c0.825-0.23022 2.7245-2.6031 4.2212-5.2731 2.8845-5.1458 2.8964-4.7576-0.43815-14.281-1.6086-4.5939-6.9854-8.6226-18.319-13.726-11.79-5.3087-12.267-5.4554-17.146-5.2737-2.2412 0.08343-3.3704 0.71008-3.8174 2.1185-0.34913 1.1-1.1953 2-1.8803 2-1.3872 0-6.6197 5.1189-6.6197 6.476 0 0.4766 0.7875 1.7366 1.75 2.8 1.0488 1.1587 1.7992 3.6921 1.8729 6.3224 0.11262 4.0232 0.66992 4.9254 6.6863 10.824 5.6867 5.5759 7.2064 6.5281 11.377 7.1293 2.6476 0.38162 6.6137 1.0488 8.8137 1.4825 3.6544 0.72054 9.7379 0.45042 13.5-0.59942zm2502.8-112.55c0.3655-8.3936-1.2387-13.908-5.3524-18.399l-3.3576-3.6656-7.784 0.70138c-9.6359 0.86824-12.772 3.0603-11.799 8.2466 0.7283 3.8822 6.984 10.162 10.163 10.202 2.5244 0.0318 10.629 4.4172 9.7629 5.2829-1.0584 1.0584 0.6352 4.6048 2.3862 4.9968 0.9366 0.20966 2.603 0.0756 3.703-0.2979 1.6767-0.56935 2.045-1.7116 2.2781-7.0669z" fill="#272727"/>
</svg>
